# xmcd CD database file
#
# Track frame offsets:
#	187
#	18120
#	38877
#	61357
#	84750
#	111262
#	144170
#	165622
#	188250
#	214955
#	234155
#	255950
#	281120
#	304050
#	312892
#	337012
#
# Disc length: 4779 seconds
#
# Revision: 0
# Processed by: cddbd v1.4b41PL3 Copyright (c) Steve Scherf et al.
# Submitted via: CD2WAV32(EN) R3.17
#
DISCID=cb12a910
DTITLE=TONY TONI TONE - HOUSE OF MUSIC
DYEAR=1900
DGENRE=
TTITLE0=Thinking Of You
TTITLE1=Top Noich
TTITLE2=Let's Get Down
TTITLE3=Til Last Summer
TTITLE4=Lovin' You
TTITLE5=Still A Man
TTITLE6=Don't Fall In Love
TTITLE7=Holy Smokes and Gee Whiz
TTITLE8=Annie May
TTITLE9=Let Me Know
TTITLE10=Tossin' and Turnin'
TTITLE11=Wild Child
TTITLE12=Party Don't Cry
TTITLE13=Lovin' You (interlude)
TTITLE14=Fire It Up
TTITLE15=Say My Name
EXTD=
EXTT0=
EXTT1=
EXTT2=
EXTT3=
EXTT4=
EXTT5=
EXTT6=
EXTT7=
EXTT8=
EXTT9=
EXTT10=
EXTT11=
EXTT12=
EXTT13=
EXTT14=
EXTT15=
PLAYORDER=
